<svg width="472" height="158" viewBox="0 0 472 158" fill="none" xmlns="http://www.w3.org/2000/svg">
<g clip-path="url(#clip0_181_2)">
<path d="M222.614 41.7015H205.737C204.282 41.7015 203.103 42.8809 203.103 44.3358V59.7813C203.103 61.2362 204.282 62.4156 205.737 62.4156H222.614C224.069 62.4156 225.248 61.2362 225.248 59.7813V44.3358C225.248 42.8809 224.069 41.7015 222.614 41.7015Z" fill="#FE7B72" stroke="#FE7B72" stroke-width="0.752667"/>
<path d="M266.263 41.7015H249.386C247.931 41.7015 246.752 42.8809 246.752 44.3358V59.7813C246.752 61.2362 247.931 62.4156 249.386 62.4156H266.263C267.718 62.4156 268.897 61.2362 268.897 59.7813V44.3358C268.897 42.8809 267.718 41.7015 266.263 41.7015Z" fill="#FE7B72" stroke="#FE7B72" stroke-width="0.752667"/>
<path d="M277.712 98.2303H260.835C259.38 98.2303 258.201 99.4097 258.201 100.865V116.31C258.201 117.765 259.38 118.944 260.835 118.944H277.712C279.167 118.944 280.346 117.765 280.346 116.31V100.865C280.346 99.4097 279.167 98.2303 277.712 98.2303Z" fill="#FE7B72" stroke="#FE7B72" stroke-width="0.752667"/>
<path d="M211.165 98.2303H194.288C192.833 98.2303 191.654 99.4097 191.654 100.865V116.31C191.654 117.765 192.833 118.944 194.288 118.944H211.165C212.62 118.944 213.799 117.765 213.799 116.31V100.865C213.799 99.4097 212.62 98.2303 211.165 98.2303Z" fill="#FE7B72" stroke="#FE7B72" stroke-width="0.752667"/>
<path d="M262.327 82.847H210.03C208.575 82.847 207.396 84.0264 207.396 85.4813V100.927C207.396 102.382 208.575 103.561 210.03 103.561H262.327C263.782 103.561 264.961 102.382 264.961 100.927V85.4813C264.961 84.0264 263.782 82.847 262.327 82.847Z" fill="#FE7B72" stroke="#FE7B72" stroke-width="0.752667"/>
<path d="M291.231 15.167H180.769C165.305 15.167 152.769 27.703 152.769 43.167V117.478C152.769 132.942 165.305 145.478 180.769 145.478H291.231C306.695 145.478 319.231 132.942 319.231 117.478V43.167C319.231 27.703 306.695 15.167 291.231 15.167Z" stroke="#FE7B72" stroke-width="24"/>
<path d="M26.4033 0.522461H6.30324C2.84444 0.522461 0.0405273 3.32637 0.0405273 6.78517V71.8555C0.0405273 75.3143 2.84444 78.1182 6.30324 78.1182H26.4033C29.8621 78.1182 32.666 75.3143 32.666 71.8555V6.78517C32.666 3.32637 29.8621 0.522461 26.4033 0.522461Z" fill="#FE7B72"/>
<path d="M26.4033 0.522461H6.30324C2.84444 0.522461 0.0405273 3.32637 0.0405273 6.78517V71.8555C0.0405273 75.3143 2.84444 78.1182 6.30324 78.1182H26.4033C29.8621 78.1182 32.666 75.3143 32.666 71.8555V6.78517C32.666 3.32637 29.8621 0.522461 26.4033 0.522461Z" stroke="#FE7B72"/>
<path d="M102.235 3.16748H82.1353C78.6765 3.16748 75.8726 5.97139 75.8726 9.43019V151.215C75.8726 154.674 78.6765 157.477 82.1353 157.477H102.235C105.694 157.477 108.498 154.674 108.498 151.215V9.43019C108.498 5.97139 105.694 3.16748 102.235 3.16748Z" fill="#FE7B72"/>
<path d="M102.235 3.16748H82.1353C78.6765 3.16748 75.8726 5.97139 75.8726 9.43019V151.215C75.8726 154.674 78.6765 157.477 82.1353 157.477H102.235C105.694 157.477 108.498 154.674 108.498 151.215V9.43019C108.498 5.97139 105.694 3.16748 102.235 3.16748Z" stroke="#FE7B72"/>
<path d="M16.7939 64.9814V85.0815C16.7939 88.5403 19.5979 91.3442 23.0567 91.3442H88.1269C91.5857 91.3442 94.3896 88.5403 94.3896 85.0815V64.9814C94.3896 61.5226 91.5857 58.7187 88.1269 58.7187L23.0567 58.7187C19.5979 58.7187 16.7939 61.5226 16.7939 64.9814Z" fill="#FE7B72"/>
<path d="M16.7939 64.9814V85.0815C16.7939 88.5403 19.5979 91.3442 23.0567 91.3442H88.1269C91.5857 91.3442 94.3896 88.5403 94.3896 85.0815V64.9814C94.3896 61.5226 91.5857 58.7187 88.1269 58.7187L23.0567 58.7187C19.5979 58.7187 16.7939 61.5226 16.7939 64.9814Z" stroke="#FE7B72"/>
<path d="M389.865 0.522461H369.765C366.306 0.522461 363.502 3.32637 363.502 6.78517V71.8555C363.502 75.3143 366.306 78.1182 369.765 78.1182H389.865C393.324 78.1182 396.127 75.3143 396.127 71.8555V6.78517C396.127 3.32637 393.324 0.522461 389.865 0.522461Z" fill="#FE7B72"/>
<path d="M389.865 0.522461H369.765C366.306 0.522461 363.502 3.32637 363.502 6.78517V71.8555C363.502 75.3143 366.306 78.1182 369.765 78.1182H389.865C393.324 78.1182 396.127 75.3143 396.127 71.8555V6.78517C396.127 3.32637 393.324 0.522461 389.865 0.522461Z" stroke="#FE7B72"/>
<path d="M465.697 3.16748H445.597C442.138 3.16748 439.334 5.97139 439.334 9.43019V151.215C439.334 154.674 442.138 157.477 445.597 157.477H465.697C469.156 157.477 471.959 154.674 471.959 151.215V9.43019C471.959 5.97139 469.156 3.16748 465.697 3.16748Z" fill="#FE7B72"/>
<path d="M465.697 3.16748H445.597C442.138 3.16748 439.334 5.97139 439.334 9.43019V151.215C439.334 154.674 442.138 157.477 445.597 157.477H465.697C469.156 157.477 471.959 154.674 471.959 151.215V9.43019C471.959 5.97139 469.156 3.16748 465.697 3.16748Z" stroke="#FE7B72"/>
<path d="M380.255 64.9814V85.0815C380.255 88.5403 383.059 91.3442 386.518 91.3442H451.588C455.047 91.3442 457.851 88.5403 457.851 85.0815V64.9814C457.851 61.5226 455.047 58.7187 451.588 58.7187L386.518 58.7187C383.059 58.7187 380.255 61.5226 380.255 64.9814Z" fill="#FE7B72"/>
<path d="M380.255 64.9814V85.0815C380.255 88.5403 383.059 91.3442 386.518 91.3442H451.588C455.047 91.3442 457.851 88.5403 457.851 85.0815V64.9814C457.851 61.5226 455.047 58.7187 451.588 58.7187L386.518 58.7187C383.059 58.7187 380.255 61.5226 380.255 64.9814Z" stroke="#FE7B72"/>
</g>
<defs>
<clipPath id="clip0_181_2">
<rect width="472" height="158" fill="white"/>
</clipPath>
</defs>
</svg>
