<svg width="494" height="156" viewBox="0 0 494 156" fill="none" xmlns="http://www.w3.org/2000/svg">
<g clip-path="url(#clip0_181_50)">
<path d="M26.8784 13.4492H6.77834C3.31954 13.4492 0.515625 16.2531 0.515625 19.7119V78.1865C0.515625 81.6453 3.31954 84.4492 6.77834 84.4492H26.8784C30.3372 84.4492 33.1411 81.6453 33.1411 78.1865V19.7119C33.1411 16.2531 30.3372 13.4492 26.8784 13.4492Z" fill="#FE7B72"/>
<path d="M26.8784 13.4492H6.77834C3.31954 13.4492 0.515625 16.2531 0.515625 19.7119V78.1865C0.515625 81.6453 3.31954 84.4492 6.77834 84.4492H26.8784C30.3372 84.4492 33.1411 81.6453 33.1411 78.1865V19.7119C33.1411 16.2531 30.3372 13.4492 26.8784 13.4492Z" stroke="#FE7B72"/>
<path d="M115.006 80.1699H94.9063C91.4475 80.1699 88.6436 82.9738 88.6436 86.4326V137.487C88.6436 140.946 91.4475 143.75 94.9063 143.75H115.006C118.465 143.75 121.269 140.946 121.269 137.487V86.4326C121.269 82.9738 118.465 80.1699 115.006 80.1699Z" fill="#FE7B72"/>
<path d="M115.006 80.1699H94.9063C91.4475 80.1699 88.6436 82.9738 88.6436 86.4326V137.487C88.6436 140.946 91.4475 143.75 94.9063 143.75H115.006C118.465 143.75 121.269 140.946 121.269 137.487V86.4326C121.269 82.9738 118.465 80.1699 115.006 80.1699Z" stroke="#FE7B72"/>
<path d="M15.8799 7.12451L15.8799 27.2246C15.8799 30.6834 18.6838 33.4873 22.1426 33.4873L115.006 33.4873C118.465 33.4873 121.269 30.6834 121.269 27.2246V7.12451C121.269 3.66571 118.465 0.861801 115.006 0.861801L22.1426 0.861801C18.6838 0.861801 15.8799 3.66571 15.8799 7.12451Z" fill="#FE7B72"/>
<path d="M15.8799 7.12451L15.8799 27.2246C15.8799 30.6834 18.6838 33.4873 22.1426 33.4873L115.006 33.4873C118.465 33.4873 121.269 30.6834 121.269 27.2246V7.12451C121.269 3.66571 118.465 0.861801 115.006 0.861801L22.1426 0.861801C18.6838 0.861801 15.8799 3.66571 15.8799 7.12451Z" stroke="#FE7B72"/>
<path d="M0.515625 131.443L0.515625 148.917C0.515625 152.376 3.31954 155.18 6.77834 155.18H101.281C104.74 155.18 107.544 152.376 107.544 148.917V131.443C107.544 127.984 104.74 125.18 101.281 125.18H6.77834C3.31954 125.18 0.515625 127.984 0.515625 131.443Z" fill="#FE7B72"/>
<path d="M0.515625 131.443L0.515625 148.917C0.515625 152.376 3.31954 155.18 6.77834 155.18H101.281C104.74 155.18 107.544 152.376 107.544 148.917V131.443C107.544 127.984 104.74 125.18 101.281 125.18H6.77834C3.31954 125.18 0.515625 127.984 0.515625 131.443Z" stroke="#FE7B72"/>
<path d="M15.8799 69.9971L15.8799 90.0972C15.8799 93.556 18.6838 96.3599 22.1426 96.3599H101.281C104.74 96.3599 107.544 93.556 107.544 90.0972V69.9971C107.544 66.5383 104.74 63.7344 101.281 63.7344L22.1426 63.7344C18.6838 63.7344 15.8799 66.5383 15.8799 69.9971Z" fill="#FE7B72"/>
<path d="M15.8799 69.9971L15.8799 90.0972C15.8799 93.556 18.6838 96.3599 22.1426 96.3599H101.281C104.74 96.3599 107.544 93.556 107.544 90.0972V69.9971C107.544 66.5383 104.74 63.7344 101.281 63.7344L22.1426 63.7344C18.6838 63.7344 15.8799 66.5383 15.8799 69.9971Z" stroke="#FE7B72"/>
<path d="M301.732 12.8696H191.27C175.806 12.8696 163.27 25.4056 163.27 40.8696V115.181C163.27 130.645 175.806 143.181 191.27 143.181H301.732C317.196 143.181 329.732 130.645 329.732 115.181V40.8696C329.732 25.4056 317.196 12.8696 301.732 12.8696Z" stroke="#FE7B72" stroke-width="24"/>
<path d="M233.385 42.0487H216.508C215.053 42.0487 213.874 43.2281 213.874 44.683V60.1285C213.874 61.5834 215.053 62.7628 216.508 62.7628H233.385C234.84 62.7628 236.019 61.5834 236.019 60.1285V44.683C236.019 43.2281 234.84 42.0487 233.385 42.0487Z" fill="#FE7B72" stroke="#FE7B72" stroke-width="0.752667"/>
<path d="M277.034 42.0487H260.157C258.702 42.0487 257.523 43.2281 257.523 44.683V60.1285C257.523 61.5834 258.702 62.7628 260.157 62.7628H277.034C278.489 62.7628 279.668 61.5834 279.668 60.1285V44.683C279.668 43.2281 278.489 42.0487 277.034 42.0487Z" fill="#FE7B72" stroke="#FE7B72" stroke-width="0.752667"/>
<path d="M288.483 98.578H271.606C270.151 98.578 268.972 99.7574 268.972 101.212V116.658C268.972 118.113 270.151 119.292 271.606 119.292H288.483C289.938 119.292 291.117 118.113 291.117 116.658V101.212C291.117 99.7574 289.938 98.578 288.483 98.578Z" fill="#FE7B72" stroke="#FE7B72" stroke-width="0.752667"/>
<path d="M221.936 98.578H205.059C203.604 98.578 202.425 99.7574 202.425 101.212V116.658C202.425 118.113 203.604 119.292 205.059 119.292H221.936C223.391 119.292 224.57 118.113 224.57 116.658V101.212C224.57 99.7574 223.391 98.578 221.936 98.578Z" fill="#FE7B72" stroke="#FE7B72" stroke-width="0.752667"/>
<path d="M273.098 83.1932H220.801C219.346 83.1932 218.167 84.3726 218.167 85.8275V101.273C218.167 102.728 219.346 103.907 220.801 103.907H273.098C274.553 103.907 275.732 102.728 275.732 101.273V85.8275C275.732 84.3726 274.553 83.1932 273.098 83.1932Z" fill="#FE7B72" stroke="#FE7B72" stroke-width="0.752667"/>
<path d="M487.222 11.188H467.122C463.663 11.188 460.859 13.9919 460.859 17.4507V137.487C460.859 140.946 463.663 143.75 467.122 143.75H487.222C490.681 143.75 493.484 140.946 493.484 137.487V17.4507C493.484 13.9919 490.681 11.188 487.222 11.188Z" fill="#FE7B72"/>
<path d="M487.222 11.188H467.122C463.663 11.188 460.859 13.9919 460.859 17.4507V137.487C460.859 140.946 463.663 143.75 467.122 143.75H487.222C490.681 143.75 493.484 140.946 493.484 137.487V17.4507C493.484 13.9919 490.681 11.188 487.222 11.188Z" stroke="#FE7B72"/>
<path d="M371.731 7.08301V27.1831C371.731 30.6419 374.535 33.4458 377.994 33.4458L472.496 33.4458C475.955 33.4458 478.759 30.6419 478.759 27.1831V7.08301C478.759 3.62421 475.955 0.820282 472.496 0.820282L377.994 0.820282C374.535 0.820282 371.731 3.62421 371.731 7.08301Z" fill="#FE7B72"/>
<path d="M371.731 7.08301V27.1831C371.731 30.6419 374.535 33.4458 377.994 33.4458L472.496 33.4458C475.955 33.4458 478.759 30.6419 478.759 27.1831V7.08301C478.759 3.62421 475.955 0.820282 472.496 0.820282L377.994 0.820282C374.535 0.820282 371.731 3.62421 371.731 7.08301Z" stroke="#FE7B72"/>
<path d="M371.731 131.443V148.917C371.731 152.376 374.535 155.18 377.994 155.18H472.496C475.955 155.18 478.759 152.376 478.759 148.917V131.443C478.759 127.984 475.955 125.18 472.496 125.18H377.994C374.535 125.18 371.731 127.984 371.731 131.443Z" fill="#FE7B72"/>
<path d="M371.731 131.443V148.917C371.731 152.376 374.535 155.18 377.994 155.18H472.496C475.955 155.18 478.759 152.376 478.759 148.917V131.443C478.759 127.984 475.955 125.18 472.496 125.18H377.994C374.535 125.18 371.731 127.984 371.731 131.443Z" stroke="#FE7B72"/>
<path d="M388.096 67.4184V87.5185C388.096 90.9773 390.9 93.7812 394.359 93.7812H473.497C476.956 93.7812 479.76 90.9773 479.76 87.5185V67.4184C479.76 63.9596 476.956 61.1557 473.497 61.1557L394.359 61.1557C390.9 61.1557 388.096 63.9596 388.096 67.4184Z" fill="#FE7B72"/>
<path d="M388.096 67.4184V87.5185C388.096 90.9773 390.9 93.7812 394.359 93.7812H473.497C476.956 93.7812 479.76 90.9773 479.76 87.5185V67.4184C479.76 63.9596 476.956 61.1557 473.497 61.1557L394.359 61.1557C390.9 61.1557 388.096 63.9596 388.096 67.4184Z" stroke="#FE7B72"/>
</g>
<defs>
<clipPath id="clip0_181_50">
<rect width="494" height="156" fill="white"/>
</clipPath>
</defs>
</svg>
